# xmcd
# 
# Track frame offsets:
#     150
#     21975
#     44250
#     65525
#     85933
#     105229
#     122129
#     138984
#     165679
#     184581
#     207859
#     234380
#     256567
#     279520
#     298197
#     316347
#     331915
# 
# Disc length: 4684
# 
# Revision: 4
# Processed by: cddbd v1.5.2PL0 Copyright (c) Steve Scherf et al.
# Submitted via: fre:ac v1.0.31
# 
DISCID=eb124a11
DTITLE=Ozzy Osbourne - Memoirs Of A Madman
DYEAR=2014
DGENRE=Rock
TTITLE0=Crazy Train
TTITLE1=Mr. Crowley
TTITLE2=Flying High Again
TTITLE3=Over The Mountain
TTITLE4=Bark At The Moon
TTITLE5=The Ultimate Sin
TTITLE6=Miracle Man
TTITLE7=No More Tears (Edit)
TTITLE8=Mama, I'm Coming Home
TTITLE9=Road To Nowhere
TTITLE10=Perry Mason
TTITLE11=I Just Want You
TTITLE12=Gets Me Through
TTITLE13=Changes (With Kelly Osbourne)
TTITLE14=I Don't Wanna Stop
TTITLE15=Let Me Hear You Scream
TTITLE16=Paranoid (Live)
EXTD=
EXTT0=
EXTT1=
EXTT2=
EXTT3=
EXTT4=
EXTT5=
EXTT6=
EXTT7=
EXTT8=
EXTT9=
EXTT10=
EXTT11=
EXTT12=
EXTT13=
EXTT14=
EXTT15=
EXTT16=
PLAYORDER=
